<?xml version="1.0" encoding="UTF-8"?>
<svg id="Layer_1" xmlns="http://www.w3.org/2000/svg" version="1.1" viewBox="0 0 524 175">
  <!-- Generator: Adobe Illustrator 29.1.0, SVG Export Plug-In . SVG Version: 2.1.0 Build 142)  -->
  <defs>
    <style>
      .st0 {
        fill: #5c3896;
      }

      .st1 {
        fill: #f99f51;
      }

      .st2 {
        fill: #f79239;
      }

      .st3, .st4 {
        fill: none;
      }

      .st4 {
        stroke: #5c3896;
        stroke-width: 1.14px;
      }
    </style>
  </defs>
  <path class="st2" d="M216.16,23.6c-2.86-.07-3.34-.07-6.26-.07-.07,3.33-.07,3.87-.07,6.84,0,8.37.14,11.67.24,13.67l-.21.23c-1.94,0-2.04,0-3.91.1l-.17-.23c.17-4.67.2-9.34.2-14.01,0-3.4-.07-5.17-.1-6.6-2.96.03-3.3.03-6.33.13l-.2-.23c.07-1.17.07-1.3.14-2.47l.17-.23c2.45,0,6.37,0,8.82-.03,2.62,0,5.24-.03,7.86-.07l.17.23c-.1,1.17-.14,1.53-.14,2.5l-.2.23Z"/>
  <path class="st2" d="M235.72,44.24c-1.63.03-1.84.03-3.4.13l-.24-.23.03-1.1c.03-1.73.03-3.5.03-5.24l-.03-3.57c0-.77,0-1.53-.17-2.27-.38-1.53-1.33-2.53-3.06-2.53-1.94,0-3.44,1.07-4.56,1.87-.03,5.8.03,8.84.24,12.74l-.17.2c-1.57.03-1.97.03-3.64.13l-.17-.23c.07-2.37.17-5.37.17-11.77,0-2.8-.03-5.6-.07-8.4-.07-2.93-.17-3.9-.27-5.4l.17-.2c1.63-.27,2.18-.37,3.71-.7l.21.23c-.21,3.57-.21,7.17-.21,10.77,1.09-.7,3.23-2.07,6.09-2.07.78,0,1.57.1,2.28.4,1.53.6,2.45,1.8,2.79,3.17.17.67.17,1.07.24,3.3v3.9l.03,1.57c.07,2.8.07,3.27.2,5.1l-.2.2Z"/>
  <path class="st2" d="M254.88,40.31c-.17,1.33-.2,1.67-.27,2.97l-.2.23c-.58.3-2.42,1.27-5.45,1.27-5.58,0-9.09-3.13-9.09-8.94,0-6.2,3.81-9.24,8.27-9.24,2.69,0,4.56,1.1,5.58,2.3,1.94,2.27,1.87,5.57,1.84,7.03l-.24.2c-5.31-.03-6.23-.03-11.81,0,.03,1.17.14,2.8,1.29,4.17,1.4,1.63,3.34,1.8,4.39,1.8.99,0,2.01-.17,2.96-.5,1.26-.5,2.01-1.1,2.45-1.47l.27.17ZM251.71,31.6c-.68-1.83-2.18-2.6-3.71-2.6-1.91,0-4.15,1.27-4.49,4.6,4.12.03,5.41,0,8.54-.03-.03-.47-.07-1.2-.34-1.97"/>
  <path class="st0" d="M192.15,25.75c-8.98,1.49-15.11,14.77-14.76,22.94.24,6.12,4.51,10.92,7.86,16.05,3.1,4.76,5.22,9.62,5.87,15.51.75,6.78-3.24,13.58-5.37,14.16-1.59.67-4.9,4.08-4.21,5.68.69,1.59,2.56,2.31,4.19,1.63,9.16-2.94,11.72-13.61,11.56-21.9-.23-11.74-5.28-16.94-10.93-24.44-4.82-6.4-1.37-21.81,7.13-23.51,1.74-.39,2.82-2.04,2.46-3.72-.4-1.71-2.09-2.76-3.8-2.41"/>
  <path class="st0" d="M183.69,76.36c-11.26.74-15.18,15.27-16.62,23.09-1.17,11.47,1.05,21.36,5.97,32.57,2.84,6.46,5.91,7.78,10.51,12.69,1.42,1.53,3.85,1.64,5.42.24,1.57-1.39,2.12-4.33.25-5.3-14.97-7.74-15.87-33.18-15.86-33.42.22-24.41,13.94-23.88,14.02-25.94.05-2.11-1.58-3.84-3.68-3.92"/>
  <path class="st0" d="M232.92,75.21c-.34,2.67-.41,3.34-.55,5.94l-.41.47c-1.16.6-4.84,2.53-10.9,2.53-11.17,0-18.19-6.27-18.19-17.88,0-12.41,7.63-18.48,16.55-18.48,5.38,0,9.13,2.2,11.17,4.6,3.88,4.54,3.75,11.14,3.68,14.08l-.48.4c-10.63-.07-12.46-.07-23.64,0,.07,2.34.27,5.6,2.59,8.34,2.79,3.27,6.67,3.6,8.79,3.6,1.97,0,4.02-.33,5.92-1,2.52-1,4.02-2.2,4.91-2.94l.55.33ZM226.58,57.8c-1.36-3.67-4.36-5.2-7.42-5.2-3.82,0-8.31,2.53-8.99,9.21,8.24.07,10.83,0,17.1-.07-.07-.93-.14-2.4-.68-3.94"/>
  <path class="st0" d="M264.39,31.51c3.47-.6,4.16-.73,7.22-1.4l.48.4c-.48,9.27-.54,25.82-.54,32.49,0,10.34.27,15.28.54,19.88l-.34.47c-3,0-3.81.07-6.95.2l-.48-.4.14-2.47c-1.64,1.2-4.43,3.34-9.4,3.34-9.06,0-15.33-7-15.33-17.15,0-7.27,3.13-11.88,5.99-14.34,4.97-4.4,11.44-4.6,14.99-4.6,1.43,0,2.11,0,3.95.13.07-8.27-.27-12.28-.61-16.15l.34-.4ZM264.46,53.46c-1.16-.07-1.97-.2-3.41-.2-2.11,0-6.61.13-9.88,3.14-1.5,1.4-3.95,4.54-3.95,10.47,0,3.8,1.09,6.54,2.52,8.21,1.23,1.4,3.47,3,7.02,3,4.15,0,6.68-2.14,7.63-2.94.14-8.74.14-10.74.07-21.68"/>
  <path class="st0" d="M312.6,71.94c-.75,3.27-2.18,5.87-4.43,8.07-3,2.94-7.01,4.07-11.78,4.07-6.13,0-10.01-2.27-12.19-4.47-4.63-4.6-4.7-11.41-4.7-13.61,0-2.54.14-9.07,4.7-13.54,1.91-1.93,5.86-4.67,12.67-4.67,4.63,0,9.2,1.47,12.19,4.8,3.14,3.54,4.02,8.21,4.16,12.88,0,2.27-.14,4.47-.61,6.47M303.81,56.67c-1.29-2.07-3.47-3.8-7.29-3.8-1.3,0-5.11.13-7.49,3.87-1.84,2.74-2.04,6.61-2.04,9.41s.07,9.41,5.45,12.08c1.23.6,2.66.87,4.02.87,2.52,0,5.79-.8,7.76-4.47,1.57-3,1.64-7.47,1.57-8.87,0-1.67-.27-6.14-1.97-9.07"/>
  <path class="st0" d="M351.14,83.29c-3.27.07-3.68.07-6.81.27l-.48-.47c0-.73.07-1.47.07-2.2.07-3.27.07-6.54.07-9.81,0-10.27-.07-10.94-.41-12.34-1.3-5.07-5.18-5.07-6.13-5.07-4.09,0-7.22,2.33-9.06,3.73-.07,11.61.07,17.68.55,25.49l-.41.4c-3.34.07-3.88.07-7.15.27l-.34-.47c.07-3.74.21-7.34.21-12.28,0-10.67-.48-16.35-.82-20.82l.41-.47c3.41-.6,4.02-.73,7.22-1.33l.48.47-.07,3.47c1.77-1.2,5.99-4.14,11.99-4.14,1.7,0,3.82.27,5.65,1.27,1.77,1,3.2,2.54,3.95,4.34.89,2,.96,4,1.02,8.14v7.81c.2,7.81.27,10.81.48,13.34l-.41.4Z"/>
  <path class="st0" d="M386.68,69.61c0,8.27.07,9.01.41,13.34l-.34.33c-3.2.07-3.75.13-6.88.27l-.27-.4.07-2.4c-1.29,1-4.36,3.4-9.54,3.4-6.81,0-11.58-4.54-11.58-11.14,0-8.94,7.63-11.81,19.89-13.21l1.16-.13c0-1.8,0-3.07-.61-4.14-.68-1.2-2.25-2.47-5.65-2.47-4.43,0-7.49,1.34-10.35,2.54l-.55-.33c.14-3.07.14-3.47.21-4.87l.41-.4c3.81-1.33,7.76-2.2,11.78-2.2,5.04,0,9.95,1.67,11.38,6.87.48,1.87.48,5.54.48,8.34v6.6ZM379.05,64.74c-6.88,1-13.28,1.93-13.28,7.87,0,.33,0,6.07,6.47,6.07,4.22,0,6.67-2.27,7.42-2.94v-11.14l-.61.13Z"/>
  <path class="st0" d="M226.4,127.2c-.75,3.27-2.18,5.87-4.43,8.07-3,2.93-7.02,4.07-11.78,4.07-6.13,0-10.01-2.27-12.19-4.47-4.63-4.6-4.7-11.41-4.7-13.61,0-2.54.14-9.07,4.7-13.54,1.91-1.93,5.86-4.67,12.67-4.67,4.63,0,9.19,1.47,12.19,4.8,3.13,3.54,4.02,8.21,4.16,12.88,0,2.27-.14,4.47-.61,6.47M217.61,111.92c-1.29-2.07-3.47-3.8-7.29-3.8-1.29,0-5.11.13-7.49,3.87-1.84,2.74-2.04,6.61-2.04,9.41s.07,9.41,5.45,12.08c1.23.6,2.66.87,4.02.87,2.52,0,5.79-.8,7.77-4.47,1.57-3,1.63-7.47,1.57-8.87,0-1.67-.27-6.14-1.98-9.07"/>
  <path class="st0" d="M264.94,138.54c-3.27.07-3.68.07-6.81.27l-.48-.47c0-.73.07-1.47.07-2.2.07-3.27.07-6.54.07-9.81,0-10.27-.07-10.94-.41-12.34-1.29-5.07-5.18-5.07-6.13-5.07-4.09,0-7.22,2.33-9.06,3.74-.07,11.61.07,17.68.55,25.49l-.41.4c-3.34.07-3.88.07-7.15.27l-.34-.47c.07-3.74.2-7.34.2-12.28,0-10.67-.48-16.35-.82-20.82l.41-.47c3.41-.6,4.02-.73,7.22-1.33l.48.47-.07,3.47c1.77-1.2,5.99-4.14,11.99-4.14,1.7,0,3.82.27,5.65,1.27,1.77,1,3.2,2.53,3.95,4.34.89,2,.96,4,1.02,8.14v7.81c.2,7.8.27,10.81.48,13.34l-.41.4Z"/>
  <path class="st0" d="M275.21,166.13l-.34-.47c.34-7.01.34-41.54.34-48.61,0-3.54,0-4.74-.07-7.67-1.7.07-3.41.07-4.77.07l-.41-.4c.14-1.87.2-2.54.27-4.8l.41-.4c2.04.07,3.41.13,4.36.13l-.07-4.4c0-3.34,0-4.14.2-5.34,1.57-7.74,10.01-7.74,11.92-7.74,1.02,0,1.7.07,2.59.13l.34.47c-.27,1.87-.34,2.74-.48,4.8l-.48.33c-.61-.13-1.09-.27-1.84-.27-1.43,0-3,.27-4.09,2-1.09,1.67-1.09,3.54-1.02,8v2c.14,0,6.06-.13,6.74-.13l.34.4c-.14,2.13-.2,2.67-.27,4.74l-.41.4c-2.93-.07-3.54-.07-6.27-.07,0,8.87-.34,44.78.14,53.66,0,.67.07,2.26.13,3,0,0-3.68-.04-7.29.16"/>
  <path class="st0" d="M322.62,130.47c-.34,2.67-.41,3.34-.54,5.94l-.41.47c-1.16.6-4.84,2.53-10.9,2.53-11.17,0-18.19-6.27-18.19-17.88,0-12.41,7.63-18.48,16.55-18.48,5.38,0,9.13,2.2,11.17,4.6,3.88,4.54,3.75,11.14,3.68,14.08l-.48.4c-10.63-.07-12.46-.07-23.64,0,.07,2.34.27,5.6,2.59,8.34,2.79,3.27,6.68,3.6,8.79,3.6,1.97,0,4.02-.33,5.92-1,2.52-1,4.02-2.2,4.91-2.93l.54.33ZM316.29,113.06c-1.36-3.67-4.36-5.2-7.42-5.2-3.82,0-8.31,2.53-8.99,9.21,8.24.07,10.83,0,17.1-.07-.07-.93-.14-2.4-.68-3.94"/>
  <path class="st0" d="M347.15,110.85c-.68-.27-1.57-.6-2.72-.6-1.3,0-2.25.47-2.86.87-2.79,1.93-2.79,4.87-2.79,11.81,0,7.54.2,11.48.48,15.21l-.34.47c-3.2,0-3.95.07-7.22.2l-.34-.4c.07-5.07.14-9.68.14-15.88,0-10.67-.21-13.41-.61-17.28l.41-.47c2.59-.47,4.22-.8,7.09-1.33l.41.4-.34,5.67c.82-2.14,2.52-6.41,8.31-6.41.89,0,1.36.07,1.91.2l.27.4c-.68,3.2-.82,3.87-1.29,6.8l-.48.33Z"/>
  <path class="st0" d="M382.21,130.47c-.34,2.67-.41,3.34-.54,5.94l-.41.47c-1.16.6-4.84,2.53-10.9,2.53-11.17,0-18.19-6.27-18.19-17.88,0-12.41,7.63-18.48,16.55-18.48,5.38,0,9.13,2.2,11.17,4.6,3.88,4.54,3.75,11.14,3.68,14.08l-.48.4c-10.62-.07-12.46-.07-23.63,0,.07,2.34.27,5.6,2.59,8.34,2.79,3.27,6.67,3.6,8.79,3.6,1.97,0,4.02-.33,5.92-1,2.52-1,4.02-2.2,4.91-2.93l.54.33ZM375.88,113.06c-1.36-3.67-4.36-5.2-7.42-5.2-3.81,0-8.31,2.53-8.99,9.21,8.24.07,10.83,0,17.1-.07-.07-.93-.14-2.4-.68-3.94"/>
  <path class="st0" d="M421.04,138.54c-3.27.07-3.68.07-6.81.27l-.48-.47c0-.73.07-1.47.07-2.2.07-3.27.07-6.54.07-9.81,0-10.27-.07-10.94-.41-12.34-1.3-5.07-5.18-5.07-6.13-5.07-4.09,0-7.22,2.33-9.06,3.74-.07,11.61.07,17.68.55,25.49l-.41.4c-3.34.07-3.88.07-7.15.27l-.34-.47c.07-3.74.2-7.34.2-12.28,0-10.67-.48-16.35-.82-20.82l.41-.47c3.41-.6,4.02-.73,7.22-1.33l.48.47-.07,3.47c1.77-1.2,5.99-4.14,11.99-4.14,1.7,0,3.82.27,5.65,1.27,1.77,1,3.2,2.53,3.95,4.34.89,2,.95,4,1.02,8.14v7.81c.2,7.8.27,10.81.48,13.34l-.41.4Z"/>
  <path class="st0" d="M456.17,130.67c-.27,2.87-.34,3.2-.55,5.94l-.48.47c-1.97.93-4.63,2.27-9.4,2.27-10.29,0-16.96-7.27-16.96-17.68s6.54-18.62,17.1-18.62c4.43,0,7.56,1.4,9.33,2.14l.27.47c-.27,2.4-.34,3.27-.48,5.27l-.54.27c-2.25-1.6-4.84-2.6-7.56-2.6-5.65,0-10.62,4.27-10.62,12.81,0,9.07,5.24,12.34,10.56,12.34,4.63,0,7.49-2.33,8.79-3.34l.55.27Z"/>
  <path class="st0" d="M490.01,130.47c-.34,2.67-.41,3.34-.55,5.94l-.41.47c-1.16.6-4.84,2.53-10.9,2.53-11.17,0-18.19-6.27-18.19-17.88,0-12.41,7.63-18.48,16.55-18.48,5.38,0,9.13,2.2,11.17,4.6,3.88,4.54,3.75,11.14,3.68,14.08l-.48.4c-10.63-.07-12.47-.07-23.64,0,.07,2.34.27,5.6,2.59,8.34,2.79,3.27,6.67,3.6,8.78,3.6,1.98,0,4.02-.33,5.93-1,2.52-1,4.02-2.2,4.9-2.93l.55.33ZM483.68,113.06c-1.36-3.67-4.36-5.2-7.42-5.2-3.81,0-8.31,2.53-8.99,9.21,8.24.07,10.83,0,17.1-.07-.07-.93-.14-2.4-.68-3.94"/>
  <polygon class="st2" points="47.93 79.71 63.05 88.55 34.6 50.99 34.56 46.23 46.31 52.1 71.7 79.71 56.03 49.34 47.61 25.52 89.52 89.1 71.65 42.37 91.91 73.57 111.59 104.35 72.19 24.7 87.32 24.7 118.8 76.21 112.44 55.9 101.9 26.35 117.57 49.82 122.04 89.47 113.15 24.87 116.66 24.87 137.28 80.75 141.07 85.17 148.9 115.27 124.32 24.42 137.56 24.7 149.71 65.56 141.88 24.7 152.42 24.76 152.18 144.5 63.77 144.74 35.19 126.04 65.17 143.16 51.39 123 81.96 141.01 36.58 89.65 34.96 84.68 79.26 121.68 47.93 79.71"/>
  <rect class="st4" x="34.37" y="24.24" width="118.23" height="120.88"/>
  <path class="st0" d="M499.3,103.91c3.64,0,6.7,2.9,6.7,6.6s-2.99,6.57-6.7,6.57-6.71-2.96-6.71-6.57,3.03-6.6,6.71-6.6M499.3,115.89c3.03,0,5.5-2.42,5.5-5.39s-2.47-5.42-5.5-5.42-5.5,2.39-5.5,5.42,2.47,5.39,5.5,5.39M497.99,114.01h-1.53v-7.05h3.35c.42,0,2.73,0,2.73,2.1,0,1.34-.98,1.72-1.33,1.88l1.33,3.06h-1.63l-1.17-2.81h-1.76v2.81ZM497.99,110.03h1.6c.52,0,1.37-.13,1.37-.99,0-.41-.29-.92-1.24-.92h-1.73v1.91Z"/>
  <rect class="st3" x="-118" y="-131" width="361.95" height="277"/>
  <polygon class="st1" points="17.89 249.71 19.09 249.53 17.87 249.51 17.89 249.71"/>
  <polygon class="st1" points="-21.44 257.11 -16.22 256.86 -18.67 256.81 -21.44 257.11"/>
</svg>